<svg width="176" height="41" viewBox="0 0 176 41" fill="none" xmlns="http://www.w3.org/2000/svg">
<path d="M175.139 25.7249C175.139 26.5056 174.913 27.2395 174.461 27.9265C174.026 28.6135 173.375 29.1913 172.506 29.6597C171.655 30.1281 170.642 30.4092 169.466 30.5029V32.4H167.701V30.5029C166 30.3623 164.625 29.9017 163.575 29.121C162.525 28.3403 162 27.3098 162 26.0294H165.312C165.367 26.6383 165.593 27.1458 165.991 27.5518C166.389 27.9421 166.959 28.192 167.701 28.3013V23.1486C166.489 22.8831 165.502 22.6177 164.742 22.3522C163.982 22.0712 163.331 21.634 162.788 21.0406C162.263 20.4473 162 19.6354 162 18.6048C162 17.3088 162.525 16.2393 163.575 15.3961C164.625 14.5373 166 14.0377 167.701 13.8971V12H169.466V13.8971C171.058 14.022 172.334 14.4592 173.293 15.2087C174.271 15.9426 174.823 16.9575 174.949 18.2535H171.637C171.583 17.7695 171.366 17.3401 170.986 16.9653C170.606 16.575 170.099 16.3095 169.466 16.169V21.228C170.678 21.4778 171.664 21.7433 172.425 22.0243C173.185 22.2898 173.827 22.7192 174.352 23.3125C174.877 23.8902 175.139 24.6944 175.139 25.7249ZM165.149 18.4643C165.149 19.1045 165.367 19.6041 165.801 19.9633C166.253 20.3224 166.887 20.6112 167.701 20.8298V16.0987C166.923 16.1768 166.299 16.4188 165.828 16.8248C165.376 17.2308 165.149 17.7773 165.149 18.4643ZM169.466 28.3013C170.262 28.192 170.886 27.9187 171.339 27.4815C171.791 27.0287 172.017 26.49 172.017 25.8654C172.017 25.2409 171.791 24.7568 171.339 24.4133C170.904 24.0542 170.28 23.7653 169.466 23.5467V28.3013Z" fill="#00FF7F"/>
<path d="M65.721 18.147H63.102V30H59.268V18.147H57.567V15.042H59.268V14.286C59.268 12.45 59.79 11.1 60.834 10.236C61.878 9.372 63.453 8.967 65.559 9.021V12.207C64.641 12.189 64.002 12.342 63.642 12.666C63.282 12.99 63.102 13.575 63.102 14.421V15.042H65.721V18.147ZM70.0876 13.26C69.4216 13.26 68.8636 13.053 68.4136 12.639C67.9816 12.207 67.7656 11.676 67.7656 11.046C67.7656 10.416 67.9816 9.894 68.4136 9.48C68.8636 9.048 69.4216 8.832 70.0876 8.832C70.7536 8.832 71.3026 9.048 71.7346 9.48C72.1846 9.894 72.4096 10.416 72.4096 11.046C72.4096 11.676 72.1846 12.207 71.7346 12.639C71.3026 13.053 70.7536 13.26 70.0876 13.26ZM71.9506 15.042V30H68.1706V15.042H71.9506ZM83.9743 14.826C85.7563 14.826 87.1963 15.393 88.2943 16.527C89.3923 17.643 89.9413 19.209 89.9413 21.225V30H86.1613V21.738C86.1613 20.55 85.8643 19.641 85.2703 19.011C84.6763 18.363 83.8663 18.039 82.8403 18.039C81.7963 18.039 80.9683 18.363 80.3563 19.011C79.7623 19.641 79.4653 20.55 79.4653 21.738V30H75.6853V15.042H79.4653V16.905C79.9693 16.257 80.6083 15.753 81.3823 15.393C82.1743 15.015 83.0383 14.826 83.9743 14.826ZM92.5639 22.467C92.5639 20.955 92.8609 19.614 93.4549 18.444C94.0669 17.274 94.8859 16.374 95.9119 15.744C96.9559 15.114 98.1169 14.799 99.3949 14.799C100.511 14.799 101.483 15.024 102.311 15.474C103.157 15.924 103.832 16.491 104.336 17.175V15.042H108.143V30H104.336V27.813C103.85 28.515 103.175 29.1 102.311 29.568C101.465 30.018 100.484 30.243 99.3679 30.243C98.1079 30.243 96.9559 29.919 95.9119 29.271C94.8859 28.623 94.0669 27.714 93.4549 26.544C92.8609 25.356 92.5639 23.997 92.5639 22.467ZM104.336 22.521C104.336 21.603 104.156 20.82 103.796 20.172C103.436 19.506 102.95 19.002 102.338 18.66C101.726 18.3 101.069 18.12 100.367 18.12C99.6649 18.12 99.0169 18.291 98.4229 18.633C97.8289 18.975 97.3429 19.479 96.9649 20.145C96.6049 20.793 96.4249 21.567 96.4249 22.467C96.4249 23.367 96.6049 24.159 96.9649 24.843C97.3429 25.509 97.8289 26.022 98.4229 26.382C99.0349 26.742 99.6829 26.922 100.367 26.922C101.069 26.922 101.726 26.751 102.338 26.409C102.95 26.049 103.436 25.545 103.796 24.897C104.156 24.231 104.336 23.439 104.336 22.521ZM120.124 14.826C121.906 14.826 123.346 15.393 124.444 16.527C125.542 17.643 126.091 19.209 126.091 21.225V30H122.311V21.738C122.311 20.55 122.014 19.641 121.42 19.011C120.826 18.363 120.016 18.039 118.99 18.039C117.946 18.039 117.118 18.363 116.506 19.011C115.912 19.641 115.615 20.55 115.615 21.738V30H111.835V15.042H115.615V16.905C116.119 16.257 116.758 15.753 117.532 15.393C118.324 15.015 119.188 14.826 120.124 14.826ZM128.713 22.521C128.713 20.973 129.028 19.623 129.658 18.471C130.288 17.301 131.161 16.401 132.277 15.771C133.393 15.123 134.671 14.799 136.111 14.799C137.965 14.799 139.495 15.267 140.701 16.203C141.925 17.121 142.744 18.417 143.158 20.091H139.081C138.865 19.443 138.496 18.939 137.974 18.579C137.47 18.201 136.84 18.012 136.084 18.012C135.004 18.012 134.149 18.408 133.519 19.2C132.889 19.974 132.574 21.081 132.574 22.521C132.574 23.943 132.889 25.05 133.519 25.842C134.149 26.616 135.004 27.003 136.084 27.003C137.614 27.003 138.613 26.319 139.081 24.951H143.158C142.744 26.571 141.925 27.858 140.701 28.812C139.477 29.766 137.947 30.243 136.111 30.243C134.671 30.243 133.393 29.928 132.277 29.298C131.161 28.65 130.288 27.75 129.658 26.598C129.028 25.428 128.713 24.069 128.713 22.521ZM159.832 22.197C159.832 22.737 159.796 23.223 159.724 23.655H148.789C148.879 24.735 149.257 25.581 149.923 26.193C150.589 26.805 151.408 27.111 152.38 27.111C153.784 27.111 154.783 26.508 155.377 25.302H159.454C159.022 26.742 158.194 27.93 156.97 28.866C155.746 29.784 154.243 30.243 152.461 30.243C151.021 30.243 149.725 29.928 148.573 29.298C147.439 28.65 146.548 27.741 145.9 26.571C145.27 25.401 144.955 24.051 144.955 22.521C144.955 20.973 145.27 19.614 145.9 18.444C146.53 17.274 147.412 16.374 148.546 15.744C149.68 15.114 150.985 14.799 152.461 14.799C153.883 14.799 155.152 15.105 156.268 15.717C157.402 16.329 158.275 17.202 158.887 18.336C159.517 19.452 159.832 20.739 159.832 22.197ZM155.917 21.117C155.899 20.145 155.548 19.371 154.864 18.795C154.18 18.201 153.343 17.904 152.353 17.904C151.417 17.904 150.625 18.192 149.977 18.768C149.347 19.326 148.96 20.109 148.816 21.117H155.917Z" fill="white"/>
<path d="M53.5861 30.0379C53.0302 30.0379 52.564 29.8443 52.1874 29.4571C51.8109 29.0699 51.6226 28.5905 51.6226 28.0189C51.6226 27.4474 51.8109 26.968 52.1874 26.5808C52.564 26.1936 53.0302 26 53.5861 26C54.124 26 54.5813 26.1936 54.9578 26.5808C55.3344 26.968 55.5226 27.4474 55.5226 28.0189C55.5226 28.5905 55.3344 29.0699 54.9578 29.4571C54.5813 29.8443 54.124 30.0379 53.5861 30.0379Z" fill="white"/>
<path d="M53.5865 30.0379C53.0307 30.0379 52.5644 29.8443 52.1879 29.4571C51.8113 29.0699 51.623 28.5906 51.623 28.019C51.623 27.4474 51.8113 26.968 52.1879 26.5808C52.5644 26.1936 53.0307 26 53.5865 26C54.1245 26 54.5817 26.1936 54.9583 26.5808C55.3348 26.968 55.5231 27.4474 55.5231 28.019C55.5231 28.5906 55.3348 29.0699 54.9583 29.4571C54.5817 29.8443 54.1245 30.0379 53.5865 30.0379Z" fill="#00FF7F"/>
<path d="M0.891 22.467C0.891 20.955 1.188 19.614 1.782 18.444C2.394 17.274 3.222 16.374 4.266 15.744C5.31 15.114 6.471 14.799 7.749 14.799C8.721 14.799 9.648 15.015 10.53 15.447C11.412 15.861 12.114 16.419 12.636 17.121V10.02H16.47V30H12.636V27.786C12.168 28.524 11.511 29.118 10.665 29.568C9.819 30.018 8.838 30.243 7.722 30.243C6.462 30.243 5.31 29.919 4.266 29.271C3.222 28.623 2.394 27.714 1.782 26.544C1.188 25.356 0.891 23.997 0.891 22.467ZM12.663 22.521C12.663 21.603 12.483 20.82 12.123 20.172C11.763 19.506 11.277 19.002 10.665 18.66C10.053 18.3 9.396 18.12 8.694 18.12C7.992 18.12 7.344 18.291 6.75 18.633C6.156 18.975 5.67 19.479 5.292 20.145C4.932 20.793 4.752 21.567 4.752 22.467C4.752 23.367 4.932 24.159 5.292 24.843C5.67 25.509 6.156 26.022 6.75 26.382C7.362 26.742 8.01 26.922 8.694 26.922C9.396 26.922 10.053 26.751 10.665 26.409C11.277 26.049 11.763 25.545 12.123 24.897C12.483 24.231 12.663 23.439 12.663 22.521ZM34.0668 22.197C34.0668 22.737 34.0308 23.223 33.9588 23.655H23.0238C23.1138 24.735 23.4918 25.581 24.1578 26.193C24.8238 26.805 25.6428 27.111 26.6148 27.111C28.0188 27.111 29.0178 26.508 29.6118 25.302H33.6888C33.2568 26.742 32.4288 27.93 31.2048 28.866C29.9808 29.784 28.4778 30.243 26.6958 30.243C25.2558 30.243 23.9598 29.928 22.8078 29.298C21.6738 28.65 20.7828 27.741 20.1348 26.571C19.5048 25.401 19.1898 24.051 19.1898 22.521C19.1898 20.973 19.5048 19.614 20.1348 18.444C20.7648 17.274 21.6468 16.374 22.7808 15.744C23.9148 15.114 25.2198 14.799 26.6958 14.799C28.1178 14.799 29.3868 15.105 30.5028 15.717C31.6368 16.329 32.5098 17.202 33.1218 18.336C33.7518 19.452 34.0668 20.739 34.0668 22.197ZM30.1518 21.117C30.1338 20.145 29.7828 19.371 29.0988 18.795C28.4148 18.201 27.5778 17.904 26.5878 17.904C25.6518 17.904 24.8598 18.192 24.2118 18.768C23.5818 19.326 23.1948 20.109 23.0508 21.117H30.1518ZM43.0629 26.517L46.8429 15.042H50.8659L45.3309 30H40.7409L35.2329 15.042H39.2829L43.0629 26.517Z" fill="white"/>
</svg>
